<svg width="126" height="45" viewBox="0 0 126 45" fill="none" xmlns="http://www.w3.org/2000/svg">
<g clip-path="url(#clip0_14_1217)">
<path d="M18.6715 23.819H26.003C33.318 23.819 39.6155 19.4722 42.558 13.2078C41.9255 11.7126 41.117 10.3063 40.182 9C38.543 15.3756 32.8175 20.1115 26.003 20.1115H18.6715C11.824 20.1115 5.609 22.8574 1 27.2875C1.33 28.6438 1.781 29.9445 2.342 31.1896C6.368 26.6761 12.187 23.819 18.6715 23.819Z" fill="#A0D7FF"/>
<path d="M43.6425 18.3487C39.6605 24.0573 33.099 27.7926 25.663 27.7926H18.3315C12.4795 27.7926 7.28199 30.5718 3.92149 34.8908C4.64199 35.9413 5.44499 36.9196 6.33049 37.8312C8.98699 34.007 13.3705 31.5001 18.3315 31.5001H25.663C32.802 31.5001 39.2645 28.5319 43.9175 23.7627C43.9505 23.2568 43.9945 22.751 43.9945 22.2341C43.9945 20.9056 43.857 19.6104 43.637 18.3487H43.6425Z" fill="#A0D7FF"/>
<path d="M18.3315 12.968C11.6985 12.968 5.52752 14.9747 0.352015 18.3931C0.137515 19.6438 1.52588e-05 20.9223 1.52588e-05 22.2341C1.52588e-05 22.5509 0.0330153 22.8622 0.0495153 23.179C5.06552 19.1213 11.418 16.6756 18.3315 16.6756H25.663C31.6855 16.6756 36.586 11.7563 36.6575 5.68638C35.5355 4.66917 34.3145 3.76314 33 2.99606V5.55298C33 9.63848 29.711 12.968 25.6685 12.968H18.337H18.3315Z" fill="#A0D7FF"/>
<path d="M18.3315 9.26604H25.663C27.6815 9.26604 29.3315 7.60404 29.3315 5.55851V1.28957C27.0325 0.466915 24.574 0 22 0C13.0185 0 5.30751 5.44734 1.89201 13.2459C6.84201 10.7168 12.419 9.26048 18.337 9.26048L18.3315 9.26604Z" fill="#A0D7FF"/>
<path d="M25.6685 35.2021H18.337C14.4925 35.2021 11.1045 37.2087 9.1355 40.2436C12.7545 42.8895 17.193 44.4681 22 44.4681C31.5865 44.4681 39.71 38.2648 42.7295 29.6213C37.917 33.1176 32.032 35.2021 25.6685 35.2021Z" fill="#A0D7FF"/>
</g>
<path d="M60.896 11.96C58.424 11.96 56.576 12.524 55.352 13.652C54.152 14.756 53.552 16.364 53.552 18.476V22.004H65.576V24.308H53.552V35H50.888V18.44C50.888 15.68 51.752 13.52 53.48 11.96C55.208 10.376 57.644 9.584 60.788 9.584C63.836 9.584 66.284 10.244 68.132 11.564L67.16 13.76C65.528 12.56 63.44 11.96 60.896 11.96ZM77.5483 35.18C75.8443 35.18 74.5243 34.7 73.5883 33.74C72.6763 32.78 72.2203 31.448 72.2203 29.744V8.288H74.7763V29.528C74.7763 30.656 75.0403 31.52 75.5683 32.12C76.0963 32.696 76.8883 32.984 77.9443 32.984C78.6163 32.984 79.1923 32.876 79.6723 32.66L79.8523 34.784C79.1083 35.048 78.3403 35.18 77.5483 35.18ZM100.394 16.064V35H97.9456V31.544C97.2736 32.696 96.3496 33.596 95.1736 34.244C93.9976 34.868 92.6536 35.18 91.1416 35.18C88.6696 35.18 86.7136 34.496 85.2736 33.128C83.8576 31.736 83.1496 29.708 83.1496 27.044V16.064H85.7056V26.792C85.7056 28.784 86.1976 30.296 87.1816 31.328C88.1656 32.36 89.5696 32.876 91.3936 32.876C93.3856 32.876 94.9576 32.276 96.1096 31.076C97.2616 29.852 97.8376 28.16 97.8376 26V16.064H100.394ZM119.612 35L113.6 27.08L107.552 35H104.672L112.16 25.28L105.032 16.064H107.912L113.6 23.48L119.288 16.064H122.096L114.968 25.28L122.528 35H119.612Z" fill="#A0D7FF"/>
<defs>
<clipPath id="clip0_14_1217">
<rect width="44" height="44.4681" fill="white"/>
</clipPath>
</defs>
</svg>
